<svg id="Camada_1" data-name="Camada 1" xmlns="http://www.w3.org/2000/svg" viewBox="0 0 220.34 220.34"><defs><style>.cls-1{fill:#fff;}.cls-2{fill:#f2b705;}.cls-3{fill:#54cbc8;}</style></defs><circle class="cls-1" cx="110.17" cy="110.17" r="110.17"/><path class="cls-2" d="M548.69,222.88a59.38,59.38,0,0,1-1.22,12c-5.11,4.2-25.69,18.36-51.48-1.06a69.77,69.77,0,0,0-8.84-5.7C457.88,212.31,434.91,230,431,233.3a59.31,59.31,0,1,1,117.7-10.42Z" transform="translate(-379.77 -132.53)"/><path class="cls-3" d="M523.13,258.37c-8.22,0-18.19-2.52-29-10.63a66.38,66.38,0,0,0-8.31-5.37c-29.2-15.77-51.25,4.26-52.17,5.12a3.64,3.64,0,0,1-5-5.31,53.58,53.58,0,0,1,17.48-10.09c9.9-3.5,25.43-5.68,43.13,3.88a75.28,75.28,0,0,1,9.22,5.95c11.32,8.53,22.79,11.15,34.07,7.79a35.44,35.44,0,0,0,13.54-7.47,3.63,3.63,0,0,1,5.1,5.18,42.66,42.66,0,0,1-16.57,9.26A40.36,40.36,0,0,1,523.13,258.37Z" transform="translate(-379.77 -132.53)"/><path class="cls-3" d="M438.16,284.71a3.64,3.64,0,0,1-3.64-3.64V256.64a3.64,3.64,0,0,1,7.27,0v24.43A3.64,3.64,0,0,1,438.16,284.71Z" transform="translate(-379.77 -132.53)"/><path class="cls-3" d="M452.89,287.32a3.64,3.64,0,0,1-3.64-3.64v-35.8a3.64,3.64,0,0,1,7.28,0v35.8A3.64,3.64,0,0,1,452.89,287.32Z" transform="translate(-379.77 -132.53)"/><path class="cls-3" d="M467.81,321.82a3.63,3.63,0,0,1-3.64-3.63V247.88a3.64,3.64,0,0,1,7.28,0v70.31A3.63,3.63,0,0,1,467.81,321.82Z" transform="translate(-379.77 -132.53)"/><path class="cls-3" d="M482.36,282.1a3.64,3.64,0,0,1-3.64-3.64V253.84a3.64,3.64,0,0,1,7.27,0v24.62A3.63,3.63,0,0,1,482.36,282.1Z" transform="translate(-379.77 -132.53)"/><path class="cls-3" d="M496.72,272.5a3.64,3.64,0,0,1-3.64-3.64v-7.37a3.64,3.64,0,1,1,7.27,0v7.37A3.63,3.63,0,0,1,496.72,272.5Z" transform="translate(-379.77 -132.53)"/><path class="cls-3" d="M511.26,307.28a3.64,3.64,0,0,1-3.63-3.64V267.46a3.64,3.64,0,1,1,7.27,0v36.18A3.64,3.64,0,0,1,511.26,307.28Z" transform="translate(-379.77 -132.53)"/><path class="cls-3" d="M525.81,303.55a3.64,3.64,0,0,1-3.64-3.64V268.86a3.64,3.64,0,0,1,7.28,0v31.05A3.64,3.64,0,0,1,525.81,303.55Z" transform="translate(-379.77 -132.53)"/><path class="cls-3" d="M540.36,282.1a3.64,3.64,0,0,1-3.64-3.64V265.18a3.64,3.64,0,0,1,7.28,0v13.28A3.64,3.64,0,0,1,540.36,282.1Z" transform="translate(-379.77 -132.53)"/></svg>