<svg id="Camada_1" data-name="Camada 1" xmlns="http://www.w3.org/2000/svg" viewBox="0 0 220.34 220.34"><defs><style>.cls-1{fill:#325bce;}.cls-2{fill:#fff;}</style></defs><circle class="cls-1" cx="110.17" cy="110.17" r="110.17"/><path class="cls-2" d="M495.77,199a2,2,0,0,1-2.08,1.69c-12.23-.7-22.79,2.83-31.64,11.15a38.54,38.54,0,0,0-12.25,23.51c-2.62,19.78,8.28,37.93,26.49,44.43a40.84,40.84,0,0,0,48.39-16.51c9.73-15.28,9.25-36.42-7.2-52.26a2.54,2.54,0,0,1-.23-3.4l7.36-9.29a2.55,2.55,0,0,1,3.68-.34,55.3,55.3,0,0,1,18.48,31.14c6.62,31.3-13.24,62.19-43.94,68.71a58.07,58.07,0,0,1-69.24-43.75c-8.82-37.66,22.27-73.8,60.67-70.58,2.43.2,3.61.88,3.18,3.56C496.8,191,496.32,194.94,495.77,199Z" transform="translate(-379.83 -129.83)"/><path class="cls-2" d="M571.16,238.21a3.23,3.23,0,0,1-3.28,3.18c-3.28,0-6.44-.11-9.58.09s-3.86-1.15-4.06-4c-1.49-21.7-11.57-38.53-29.77-50.21a64,64,0,0,0-96.38,70c1.08,4.19-.19,5.37-4.5,6.28a26.61,26.61,0,0,0-6.72,2.14,3.2,3.2,0,0,1-4.46-1.69c-6.88-18.81-5.3-52.51,18-77.74a81.76,81.76,0,0,1,94.91-18C557.72,183.76,571.31,215.55,571.16,238.21Z" transform="translate(-379.83 -129.83)"/><path class="cls-2" d="M490.13,277a35.58,35.58,0,1,1,35.67-37.08A35.54,35.54,0,0,1,490.13,277Z" transform="translate(-379.83 -129.83)"/><path class="cls-2" d="M452.12,293.42a65.54,65.54,0,0,0,94.25-19.82,2.68,2.68,0,0,1,3.54-1l9.66,5a2.72,2.72,0,0,1,1.13,3.7C538,323.53,479.94,335.77,442,306.51a2.4,2.4,0,0,1-.44-3.37c2.41-3,4.83-6.09,7.32-9.24A2.37,2.37,0,0,1,452.12,293.42Z" transform="translate(-379.83 -129.83)"/></svg>