<svg xmlns="http://www.w3.org/2000/svg" xmlns:xlink="http://www.w3.org/1999/xlink" viewBox="0 0 269.32 60.16"><defs><style>.cls-1{fill:#fff;}.cls-2{fill:url(#Gradiente_sem_nome_22);}.cls-3{fill:url(#Gradiente_sem_nome_22-2);}</style><linearGradient id="Gradiente_sem_nome_22" x1="444.25" y1="323.26" x2="379.05" y2="275.21" gradientUnits="userSpaceOnUse"><stop offset="0" stop-color="#1d71b8"/><stop offset="1" stop-color="#662483"/></linearGradient><linearGradient id="Gradiente_sem_nome_22-2" x1="457.77" y1="304.91" x2="392.57" y2="256.86" xlink:href="#Gradiente_sem_nome_22"/></defs><g id="Camada_3" data-name="Camada 3"><path class="cls-1" d="M322.21,305.09a2.39,2.39,0,0,1-2.38-2.38V277.24a.63.63,0,0,0-1.22-.24l-11.36,26.86a2,2,0,0,1-1.85,1.23h0a2,2,0,0,1-1.84-1.22l-11.48-27.1a.64.64,0,0,0-1.22.25V302.8a2.28,2.28,0,0,1-2.29,2.29h0a2.28,2.28,0,0,1-2.28-2.29V271.9a3.9,3.9,0,0,1,3.89-3.9h0a3.91,3.91,0,0,1,3.6,2.39l10.4,24.76a1.29,1.29,0,0,0,2.38,0l10.36-24.7A4,4,0,0,1,320.6,268h0a4,4,0,0,1,4,4v30.71a2.39,2.39,0,0,1-2.39,2.38Z" transform="translate(-286.29 -267.56)"/><path class="cls-1" d="M347.21,305.09H331.5a2.12,2.12,0,0,1-2.12-2.12V270.12A2.12,2.12,0,0,1,331.5,268h14.87a2.12,2.12,0,0,1,2.12,2.12v0a2.12,2.12,0,0,1-2.12,2.12H336.29a2.12,2.12,0,0,0-2.12,2.12V282a2.12,2.12,0,0,0,2.12,2.12h9a2.12,2.12,0,0,1,2.12,2.12h0a2.12,2.12,0,0,1-2.12,2.12h-9a2.12,2.12,0,0,0-2.12,2.12v8.23a2.12,2.12,0,0,0,2.12,2.12h10.92a2.12,2.12,0,0,1,2.12,2.12h0A2.12,2.12,0,0,1,347.21,305.09Z" transform="translate(-286.29 -267.56)"/><path class="cls-1" d="M378.16,272.26h-6.44a2.14,2.14,0,0,0-2.14,2.13V303a2.13,2.13,0,0,1-2.13,2.13h-.55a2.13,2.13,0,0,1-2.13-2.13V274.39a2.13,2.13,0,0,0-2.13-2.13h-6.39a2.13,2.13,0,0,1-2.13-2.13h0a2.13,2.13,0,0,1,2.13-2.13h21.91a2.14,2.14,0,0,1,2.13,2.13h0A2.13,2.13,0,0,1,378.16,272.26Z" transform="translate(-286.29 -267.56)"/><path class="cls-1" d="M489.05,305.09h0a2.46,2.46,0,0,1-2.3-1.6l-2.59-7a2.45,2.45,0,0,0-2.3-1.59h-12a2.43,2.43,0,0,0-2.31,1.64l-2.42,6.87a2.45,2.45,0,0,1-2.31,1.64h0a2.45,2.45,0,0,1-2.29-3.32l11.95-31.37a3.71,3.71,0,0,1,3.47-2.4h0a3.72,3.72,0,0,1,3.48,2.4l11.94,31.37A2.44,2.44,0,0,1,489.05,305.09Zm-7.68-16.31-4.14-12a1.49,1.49,0,0,0-2.81,0l-4.14,12a1.49,1.49,0,0,0,1.41,2H480A1.49,1.49,0,0,0,481.37,288.78Z" transform="translate(-286.29 -267.56)"/><path class="cls-1" d="M520.34,272.26h-6.45a2.14,2.14,0,0,0-2.13,2.13V303a2.13,2.13,0,0,1-2.13,2.13h-.55A2.13,2.13,0,0,1,507,303V274.39a2.13,2.13,0,0,0-2.13-2.13h-6.39a2.13,2.13,0,0,1-2.13-2.13h0a2.13,2.13,0,0,1,2.13-2.13h21.91a2.14,2.14,0,0,1,2.13,2.13h0A2.13,2.13,0,0,1,520.34,272.26Z" transform="translate(-286.29 -267.56)"/><path class="cls-1" d="M553.21,305.09h0a2.39,2.39,0,0,1-2.39-2.39V290.77a2.4,2.4,0,0,0-2.4-2.39h-14a2.4,2.4,0,0,0-2.4,2.39V302.7a2.39,2.39,0,0,1-2.39,2.39h0a2.4,2.4,0,0,1-2.4-2.39V270.4a2.4,2.4,0,0,1,2.4-2.4h0a2.39,2.39,0,0,1,2.39,2.4v11.32a2.41,2.41,0,0,0,2.4,2.4h14a2.41,2.41,0,0,0,2.4-2.4V270.4a2.39,2.39,0,0,1,2.39-2.4h0a2.39,2.39,0,0,1,2.39,2.4v32.3A2.39,2.39,0,0,1,553.21,305.09Z" transform="translate(-286.29 -267.56)"/><path class="cls-2" d="M402.87,278.34a2.17,2.17,0,0,0-4.09,0l-8.88,25.28a2.49,2.49,0,0,1-2.34,1.66h0a2.48,2.48,0,0,1-2.32-3.36l12.1-31.76a3.76,3.76,0,0,1,3.5-2.42h0a3.75,3.75,0,0,1,3.52,2.44l20.39,54.17a2.48,2.48,0,0,1-2.32,3.35h0a2.46,2.46,0,0,1-2.32-1.63C417.47,318.8,406.75,289.13,402.87,278.34Z" transform="translate(-286.29 -267.56)"/><path class="cls-3" d="M453.08,305.09h0a2.5,2.5,0,0,1-2.36-1.67l-9.14-25.69a1.91,1.91,0,0,0-3.59,0l-8.74,24.53a4.26,4.26,0,0,1-4,2.83h0a4.26,4.26,0,0,1-4-2.74l-12-31.41a2.49,2.49,0,0,1,2.33-3.38h0a2.5,2.5,0,0,1,2.34,1.61l9.63,25.56a1.88,1.88,0,0,0,3.54-.05l8.22-24a4.63,4.63,0,0,1,4.39-3.13h0a4.64,4.64,0,0,1,4.36,3.05l11.33,31.11A2.51,2.51,0,0,1,453.08,305.09Z" transform="translate(-286.29 -267.56)"/></g></svg>