<svg xmlns="http://www.w3.org/2000/svg" viewBox="0 0 662.26 144.1"><defs><style>.cls-1{fill:#fff;}</style></defs><g id="Camada_4" data-name="Camada 4"><path class="cls-1" d="M166.78,261.71c-11.54-1-21.45,2-29.69,9.77a34.24,34.24,0,0,0-10.87,20.85c-2.32,17.55,7.35,33.64,23.5,39.41a36.23,36.23,0,0,0,42.92-14.65c8.92-14,8.17-33.55-7.88-47.73l9.26-11.7a49.45,49.45,0,0,1,18.22,29.14c5.87,27.77-11.75,55.16-39,60.95a51.52,51.52,0,0,1-61.41-38.81c-7.83-33.4,19.75-65.46,53.81-62.6,2.15.18,3.2.78,2.82,3.16C167.83,253.47,167.36,257.48,166.78,261.71Z" transform="translate(-89.81 -225.59)"/><path class="cls-1" d="M233.84,297.67c-3.93,0-7.63-.18-11.32.06-2.85.18-3.42-1-3.6-3.6-1.32-19.26-10.28-34.21-26.43-44.58a56.83,56.83,0,0,0-85.58,62.15c.87,3.39,0,4.56-3,5.35-3.35.87-6.61,2.08-9.89,3.13-7.23-16.06-6.81-48,15-71.53a72.59,72.59,0,0,1,84.27-16C223.4,247.14,235.2,277.46,233.84,297.67Z" transform="translate(-89.81 -225.59)"/><path class="cls-1" d="M162,328a30.36,30.36,0,1,1,30.46-30.25A30.29,30.29,0,0,1,162,328Z" transform="translate(-89.81 -225.59)"/><path class="cls-1" d="M126.65,342.66A58.19,58.19,0,0,0,213,324.32L225.78,331c-19.58,39.84-73.95,51.37-108.2,23.17Z" transform="translate(-89.81 -225.59)"/><path class="cls-1" d="M440.18,305.08l12.14,19.06c-7.77,4.1-11.09,3.36-15-2.67-1.38-2.1-2.75-4.21-4.08-6.34-6-9.68-7.39-9.26-19.6-9.26,0,4.53-.13,11.11,0,15.84.15,4.16-2.21,4.91-5.64,4.88s-5.77-.77-5.69-4.91q.21-10.62,0-21.24c-.09-4,2-5.14,5.52-5.11,7.08.06,14.17.11,21.24-.06,5.05-.12,10.13-1,10.05-7.58-.08-6.19-4.73-7.83-10-7.94-7.08-.16-14.16-.19-21.24,0-4.1.1-5.65-1.49-5.67-5.63,0-4.35,2-5.57,5.87-5.51,6.62.11,13.24,0,19.87,0,11.65.08,18.65,4.08,21.58,12.26C452.77,289.79,450.23,296.71,440.18,305.08Z" transform="translate(-89.81 -225.59)"/><path class="cls-1" d="M561.35,315.34S553.38,296,548.8,285c-3.53,8.22-6.62,14.43-8.84,20.93-1.71,5-3,6.71-9.35,5.32-1.49-.33-4.5-1.56-3.36-4.46,4.68-11.86,9.57-23.67,14.93-35.24,2.21-4.77,11.35-4.25,13.51.67,7,16.08,13.77,32.29,20.62,48.45,2,4.76-.29,6.17-4.7,6.16-14.83,0-29.66.14-44.48-.16-2.31-.05-6.83-.26-6.51-3.33.38-3.74,1.42-7.79,6.73-7.76C536.24,315.59,561.35,315.34,561.35,315.34Z" transform="translate(-89.81 -225.59)"/><path class="cls-1" d="M279.52,308c0,5.15,0,9.44,0,13.73,0,4-2.36,4.87-5.82,4.9-3.62,0-5.7-1.22-5.62-5.09,0-.68,0-1.37,0-2,.31-7-2-16.45,1.68-20.35,3.47-3.71,13.12-1.66,20.05-2.13.91-.06,1.83,0,2.74,0,7.87-.2,11.43-3,11.3-8.79s-3.52-8.37-11.6-8.47c-5.93-.07-11.88-.18-17.8,0-4.17.15-6.48-1-6.41-5.67.05-4.23,2-5.56,6-5.48,7.31.14,14.63-.22,21.92.15,11.93.61,19.53,8.41,19.56,19.53s-7.55,18.86-19.5,19.65C290.8,308.26,285.58,308,279.52,308Z" transform="translate(-89.81 -225.59)"/><path class="cls-1" d="M727.35,273.72c-.07,4.53-4.48,5.91-6.89,6.71s-3.91,3.25-3.84,4.79,2.46,3.72,4.27,4.35c6,2.08,12.33,3.29,18.34,5.38,9.28,3.23,13.36,8.76,12.79,16.36-.59,7.91-6.52,14-15.78,15.47-1.86.29-4,.69-5.76-2.2s-2.33-6.4,2.42-8.3c1.12-.45,3.15-.71,4.48-1.51,4.14-2.49,4.28-6.25,0-8.31-4.08-1.93-8.62-2.88-13-4.27-3.46-1.1-7.08-1.87-10.35-3.4-7.68-3.61-10.46-9-9-16.45,1.42-7.16,8.13-13.25,15.41-13.21C722.26,269.14,727.41,269.11,727.35,273.72Z" transform="translate(-89.81 -225.59)"/><path class="cls-1" d="M481,297.79c0-7.53.16-15.06-.07-22.58-.13-4.59,1.45-6.79,6.27-6.63,6.15.19,12.31.15,18.46,0,4.13-.09,5.6,1.76,5.61,5.79,0,4.2-1.79,5.43-5.78,5.57-12.8.47-12.79.6-12.79,13.26,0,9.35-.1,18.7,0,28,.05,4.21-1.34,6.3-5.94,6.22s-5.9-2.27-5.82-6.43C481.09,313.29,481,305.54,481,297.79Z" transform="translate(-89.81 -225.59)"/><path class="cls-1" d="M386,298.13c-.09,12.56-7.65,23.9-18.92,27.47-2.29.72-6.79.68-7.41-1.61-1-3.57-1.67-6.28,3.38-8.55,10.15-4.55,14.11-13.19,10.4-23.16a22.78,22.78,0,0,0-9.88-11.13c-4.94-2.64-4.16-5.74-4-9.87.11-3.33,5.58-1.71,8-.91C378.73,274,386,285.42,386,298.13Z" transform="translate(-89.81 -225.59)"/><path class="cls-1" d="M354.14,276.29c-.47,2.94-2,3.28-4,4.09-8.09,3.22-11.65,9.36-11.66,17.52s3.66,14.58,11.86,17.3c4,1.35,4.4,5.25,3.31,8.91-.7,2.34-5,2.27-7.17,1.64-11.84-3.38-19.88-15.72-19.46-29,.41-12.86,8.7-23.95,20.23-27.07C352.83,268.18,354.14,269.06,354.14,276.29Z" transform="translate(-89.81 -225.59)"/><path class="cls-1" d="M602.75,297.19c0,8-.15,15.95,0,23.92.11,4.3-1.9,5.46-5.8,5.52-4.15.06-5.61-1.6-5.57-5.69q.21-23.24,0-46.49c0-3.91,1.09-5.89,5.39-5.9s6.13,1.61,6,6.08C602.57,282.14,602.75,289.67,602.75,297.19Z" transform="translate(-89.81 -225.59)"/><path class="cls-1" d="M667.92,279.8c-5.47,0-10.94-.1-16.41,0-3.7.09-5.41-1.29-5.41-5.17s.85-6.12,5.27-6.08q16.74.18,33.51,0c4.3-.05,5.5,2.1,5.45,5.95-.06,3.65-1.44,5.43-5.31,5.32C679.32,279.68,673.62,279.8,667.92,279.8Z" transform="translate(-89.81 -225.59)"/><path class="cls-1" d="M667.92,326.75c-5.47,0-10.93-.1-16.39,0-4.24.11-5.47-2-5.43-5.91,0-3.76,1.51-5.38,5.27-5.35q16.74.11,33.46,0c3.66,0,5.47,1.39,5.49,5.2s-1,6.17-5.33,6.07C679.3,326.65,673.61,326.75,667.92,326.75Z" transform="translate(-89.81 -225.59)"/><path class="cls-1" d="M669,292.07c5,0,9.92.16,14.87,0,4.25-.17,6.36,1,6.44,5.34.07,4.49-1.83,6-6.59,5.95-10.41-.2-20.82-.16-31.23,0-4.21.06-6.4-1-6.44-5.37s1.78-6.15,6.59-5.92C658.1,292.28,663.56,292.07,669,292.07Z" transform="translate(-89.81 -225.59)"/><path class="cls-1" d="M706.8,306.88c4.93-.88,15.12,6.14,18.63,12.57.76,1.39,1.47,5.57-3.16,6.11-7.49,1.25-16.17-4.44-19.16-11.63C701.33,309.64,702.35,307.36,706.8,306.88Z" transform="translate(-89.81 -225.59)"/><path class="cls-1" d="M745.15,288.62a18.24,18.24,0,0,1-4.25-2.42,42.72,42.72,0,0,1-7.25-6.3c-1-1.25-2.79-3.15-2.79-5.16,0-4.94,4.37-4.58,6.54-4.3a16.84,16.84,0,0,1,13.88,10.78C753.24,285.91,751.7,290,745.15,288.62Z" transform="translate(-89.81 -225.59)"/><path class="cls-1" d="M619.56,326.55c-2.28,0-4.57-.06-6.84,0-4,.14-5-2.05-5-5.6s1.31-5.58,5.15-5.51c4.1.07,8.21.09,12.31,0s6.45.85,6.45,5.67-2.7,5.66-6.58,5.5c-1.82-.08-3.65,0-5.47,0Z" transform="translate(-89.81 -225.59)"/><path class="cls-1" d="M469.54,268.67c4.33-.45,6.84.77,6.81,5.88,0,5.62-3.54,5.26-7.32,5.37-4,.12-6.44-.71-6.46-5.54C462.55,269.15,465.34,268.26,469.54,268.67Z" transform="translate(-89.81 -225.59)"/></g></svg>