<svg id="Camada_1" data-name="Camada 1" xmlns="http://www.w3.org/2000/svg" viewBox="0 0 26.97 20.69"><defs><style>.cls-1{fill:#798193;}</style></defs><path class="cls-1" d="M423.9,338.49a22.77,22.77,0,0,0-1.12-4.66,25.41,25.41,0,0,0-2.72-5.35.79.79,0,0,0-.34-.29,22.78,22.78,0,0,0-5.11-1.59c-.34-.05-.4,0-.57.28a7.48,7.48,0,0,0-.39.81.36.36,0,0,1-.47.26,12,12,0,0,0-1.89-.17,18.69,18.69,0,0,0-3.58.18.35.35,0,0,1-.43-.24,5.78,5.78,0,0,0-.4-.83c-.2-.34-.25-.36-.62-.28a22.68,22.68,0,0,0-4.55,1.36,2,2,0,0,0-1,.77,25.15,25.15,0,0,0-2.87,6.12,20,20,0,0,0-.81,4c0,.35,0,5.05.35,5.28a23.51,23.51,0,0,0,6.18,3.08c.35.11.42.09.64-.22.35-.51.68-1.05,1-1.59s.3-.55-.27-.78-1-.47-1.48-.72c-.08,0-.21-.08-.12-.23a.45.45,0,0,1,.56-.16,15.69,15.69,0,0,0,2.11.78,16.08,16.08,0,0,0,4.08.64c.55,0,1.09,0,1.64-.05a16,16,0,0,0,4.44-1l1-.41a.43.43,0,0,1,.5.22c0,.18-.14.2-.25.25a14.61,14.61,0,0,1-1.6.75c-.25.1-.28.19-.16.42a14.81,14.81,0,0,0,1.14,1.87c.23.33.26.33.63.21a22.58,22.58,0,0,0,3.82-1.62,26.89,26.89,0,0,0,2.5-1.57.48.48,0,0,0,.24-.46C424,343.32,424,338.89,423.9,338.49Zm-18.73.31a2.79,2.79,0,1,1,2.68-2.79A2.74,2.74,0,0,1,405.17,338.8Zm10.6,0a2.79,2.79,0,1,1,2.68-2.79A2.73,2.73,0,0,1,415.77,338.8Z" transform="translate(-396.99 -326.57)"/></svg>