<svg id="Camada_1" data-name="Camada 1" xmlns="http://www.w3.org/2000/svg" viewBox="0 0 30.64 31.33"><defs><style>.cls-1{fill:#fff;}</style></defs><path class="cls-1" d="M412.36,352.59h-8.27a9,9,0,0,1-8.95-8.95v-9a9,9,0,0,1,8.95-8.95h8.27a9,9,0,0,1,8.95,8.95v9A9,9,0,0,1,412.36,352.59Zm-8.27-25.48a7.58,7.58,0,0,0-7.57,7.57v9a7.58,7.58,0,0,0,7.57,7.57h8.27a7.58,7.58,0,0,0,7.57-7.57v-9a7.58,7.58,0,0,0-7.57-7.57Z" transform="translate(-395.14 -321.26)"/><path class="cls-1" d="M425.09,339.85a.68.68,0,0,1-.68-.69v-9a7.59,7.59,0,0,0-7.58-7.58h-8.26a.69.69,0,1,1,0-1.37h8.26a9,9,0,0,1,8.95,8.95v9A.69.69,0,0,1,425.09,339.85Z" transform="translate(-395.14 -321.26)"/><path class="cls-1" d="M415.11,347.32H401.34a.69.69,0,0,1,0-1.38h13.08v-1.48H401.34a.69.69,0,0,1-.69-.69v-3.06a.69.69,0,0,1,.69-.69h13.08v-1.48H401.34a.69.69,0,0,1-.69-.69v-3.06a.69.69,0,0,1,.69-.69h13.08v-1.48H401.34a.69.69,0,0,1,0-1.38h13.77a.69.69,0,0,1,.69.69v2.86a.69.69,0,0,1-.69.69H402v1.68h13.08a.69.69,0,0,1,.69.69v2.86a.69.69,0,0,1-.69.69H402v1.68h13.08a.69.69,0,0,1,.69.69v2.86A.69.69,0,0,1,415.11,347.32Z" transform="translate(-395.14 -321.26)"/></svg>