<svg id="Camada_1" data-name="Camada 1" xmlns="http://www.w3.org/2000/svg" viewBox="0 0 21 21"><defs><style>.cls-1{fill:#798193;}</style></defs><path class="cls-1" d="M400,337.21v-.57a2.9,2.9,0,0,1,1-1.47q3.9-3.89,7.78-7.79a3,3,0,0,1,1.48-1h.58a2.91,2.91,0,0,1,1.46.95q3.9,3.92,7.82,7.81a2.82,2.82,0,0,1,.93,1.5v.49a.32.32,0,0,0,0,.09,1.92,1.92,0,0,1-1.91,1.59h-.31v.28q0,3,0,6.09a2.24,2.24,0,0,1-1.57,2.1l-.39.1H413a.73.73,0,0,1-.49-.78c0-1.56,0-3.13,0-4.69a1,1,0,0,0-1.13-1.12h-1.74a1,1,0,0,0-1.17,1.16c0,1.55,0,3.1,0,4.65a.73.73,0,0,1-.49.78h-3.77l-.06,0a2.28,2.28,0,0,1-1.92-2.36c0-2,0-3.95,0-5.92v-.26h-.37a1.88,1.88,0,0,1-1.66-1.05A3.77,3.77,0,0,1,400,337.21Z" transform="translate(-399.96 -326.42)"/></svg>