<svg id="Camada_1" data-name="Camada 1" xmlns="http://www.w3.org/2000/svg" viewBox="0 0 30.09 30"><defs><style>.cls-1{fill:#798193;}</style></defs><path class="cls-1" d="M406.08,331.93H412v2.7c.09-.05.13-.05.14-.08a6.51,6.51,0,0,1,5.76-3.11,8.62,8.62,0,0,1,4,.74,5.77,5.77,0,0,1,3,3.8,14.72,14.72,0,0,1,.55,4.12c0,3.86,0,7.72,0,11.57,0,.06,0,.12,0,.21h-6.23v-.41c0-3.28,0-6.55,0-9.82a13.78,13.78,0,0,0-.2-2.22c-.38-2.06-1.72-2.75-3.62-2.52a3.18,3.18,0,0,0-3,3.1,15.91,15.91,0,0,0-.15,2.08c0,3.12,0,6.25,0,9.37v.47h-6.22Z" transform="translate(-395.42 -321.93)"/><path class="cls-1" d="M395.93,351.93v-20h6.2v20Z" transform="translate(-395.42 -321.93)"/><path class="cls-1" d="M402.63,325.52a3.61,3.61,0,1,1-3.63-3.59A3.63,3.63,0,0,1,402.63,325.52Z" transform="translate(-395.42 -321.93)"/></svg>