<svg id="Camada_1" data-name="Camada 1" xmlns="http://www.w3.org/2000/svg" viewBox="0 0 36.65 20.78"><defs><style>.cls-1{fill:#798193;}</style></defs><path class="cls-1" d="M392.14,335.7c.13-.67.23-1.36.41-2a10.36,10.36,0,1,1-.28,4.54c0-.27-.09-.53-.13-.8Z" transform="translate(-392.14 -326.17)"/><path class="cls-1" d="M428.78,338.28c-.07.79-.09,1.58-.22,2.37-.19,1.18-.44,2.35-.71,3.52a2.63,2.63,0,0,1-.45.88c-.27.38-.67.39-.89,0a8.27,8.27,0,0,1-.72-1.84,30.27,30.27,0,0,1-.62-7.77,25.66,25.66,0,0,1,.62-5.45,7.75,7.75,0,0,1,.6-1.67c.32-.65.8-.64,1.16,0a7.27,7.27,0,0,1,.8,2.65c.16,1.17.25,2.34.37,3.51l.06.42Z" transform="translate(-392.14 -326.17)"/><path class="cls-1" d="M413.81,336.53a15.1,15.1,0,0,1,1.46-6.77,6.58,6.58,0,0,1,1.55-2.08,3.06,3.06,0,0,1,4.35,0,7.61,7.61,0,0,1,2.05,3.3,16.53,16.53,0,0,1-.39,12.06,6.79,6.79,0,0,1-1.54,2.25,3.11,3.11,0,0,1-4.62,0,9,9,0,0,1-2.26-4.19A16.17,16.17,0,0,1,413.81,336.53Z" transform="translate(-392.14 -326.17)"/></svg>