<svg id="Camada_1" data-name="Camada 1" xmlns="http://www.w3.org/2000/svg" viewBox="0 -4.77 25.77 25.77"><defs><style>.cls-1{fill:#798193;}</style></defs><path class="cls-1" d="M397.58,345.14a10.83,10.83,0,0,0,7.77-2.19,5.37,5.37,0,0,1-3.89-1.85,4.9,4.9,0,0,1-1-1.84,6,6,0,0,0,2.31-.09,5.31,5.31,0,0,1-4.15-5.26,5.5,5.5,0,0,0,2.34.63,5.34,5.34,0,0,1-2.29-3.76,5.26,5.26,0,0,1,.68-3.3A15.07,15.07,0,0,0,410.19,333c0-.53-.06-1-.05-1.53A5.28,5.28,0,0,1,414,326.7a5.21,5.21,0,0,1,5.17,1.34.34.34,0,0,0,.36.09,10.48,10.48,0,0,0,2.91-1.11l.22-.1a4.29,4.29,0,0,1-.85,1.61c-.4.45-.85.84-1.3,1.28.48-.1,1-.18,1.43-.31s.93-.31,1.44-.42c-.43.5-.83,1-1.29,1.49s-.8.7-1.19,1.05a.47.47,0,0,0-.14.31,15.21,15.21,0,0,1-6.6,13.05,13.59,13.59,0,0,1-6.33,2.38,15.54,15.54,0,0,1-6.4-.46,14.56,14.56,0,0,1-3.71-1.67S397.64,345.19,397.58,345.14Z" transform="translate(-397.58 -326.5)"/></svg>