<?xml version="1.0" encoding="UTF-8" standalone="no"?>
<svg
   viewBox="0 0 144.23712 144.13827"
   version="1.1"
   id="svg45"
   sodipodi:docname="favicon.svg"
   width="144.23712"
   height="144.13828"
   inkscape:version="1.1.2 (b8e25be833, 2022-02-05)"
   xmlns:inkscape="http://www.inkscape.org/namespaces/inkscape"
   xmlns:sodipodi="http://sodipodi.sourceforge.net/DTD/sodipodi-0.dtd"
   xmlns="http://www.w3.org/2000/svg"
   xmlns:svg="http://www.w3.org/2000/svg">
  <sodipodi:namedview
     id="namedview47"
     pagecolor="#ffffff"
     bordercolor="#666666"
     borderopacity="1.0"
     inkscape:pageshadow="2"
     inkscape:pageopacity="0.0"
     inkscape:pagecheckerboard="0"
     showgrid="false"
     fit-margin-top="0"
     fit-margin-left="0"
     fit-margin-right="0"
     fit-margin-bottom="0"
     inkscape:zoom="3.7024733"
     inkscape:cx="210.80503"
     inkscape:cy="73.194316"
     inkscape:window-width="1920"
     inkscape:window-height="1009"
     inkscape:window-x="-8"
     inkscape:window-y="-8"
     inkscape:window-maximized="1"
     inkscape:current-layer="svg45" />
  <defs
     id="defs4">
    <style
       id="style2">.cls-1{fill:#fff;}</style>
    <clipPath
       clipPathUnits="userSpaceOnUse"
       id="clipPath201">
      <rect
         style="fill:#000000;stroke:#000000;stroke-width:2.59373"
         id="rect203"
         width="144.27986"
         height="145.90039"
         x="-0.025971044"
         y="-0.56615049"
         ry="13.00723" />
    </clipPath>
  </defs>
  <g
     id="Camada_4"
     data-name="Camada 4"
     style="fill:#ffffff"
     clip-path="url(#clipPath201)"
     transform="translate(-0.01676808,-0.0078627)">
    <path
       class="cls-1"
       d="m 166.78,261.71 c -11.54,-1 -21.45,2 -29.69,9.77 a 34.24,34.24 0 0 0 -10.87,20.85 c -2.32,17.55 7.35,33.64 23.5,39.41 a 36.23,36.23 0 0 0 42.92,-14.65 c 8.92,-14 8.17,-33.55 -7.88,-47.73 l 9.26,-11.7 a 49.45,49.45 0 0 1 18.22,29.14 c 5.87,27.77 -11.75,55.16 -39,60.95 a 51.52,51.52 0 0 1 -61.41,-38.81 c -7.83,-33.4 19.75,-65.46 53.81,-62.6 2.15,0.18 3.2,0.78 2.82,3.16 -0.63,3.97 -1.1,7.98 -1.68,12.21 z"
       transform="translate(-89.81,-225.59)"
       id="path6"
       style="fill:#ffffff" />
    <path
       class="cls-1"
       d="m 233.84,297.67 c -3.93,0 -7.63,-0.18 -11.32,0.06 -2.85,0.18 -3.42,-1 -3.6,-3.6 -1.32,-19.26 -10.28,-34.21 -26.43,-44.58 a 56.83,56.83 0 0 0 -85.58,62.15 c 0.87,3.39 0,4.56 -3,5.35 -3.35,0.87 -6.61,2.08 -9.89,3.13 -7.23,-16.06 -6.81,-48 15,-71.53 a 72.59,72.59 0 0 1 84.27,-16 c 30.11,14.49 41.91,44.81 40.55,65.02 z"
       transform="translate(-89.81,-225.59)"
       id="path8"
       style="fill:#ffffff" />
    <path
       class="cls-1"
       d="M 162,328 A 30.36,30.36 0 1 1 192.46,297.75 30.29,30.29 0 0 1 162,328 Z"
       transform="translate(-89.81,-225.59)"
       id="path10"
       style="fill:#ffffff" />
    <path
       class="cls-1"
       d="M 126.65,342.66 A 58.19,58.19 0 0 0 213,324.32 l 12.78,6.68 c -19.58,39.84 -73.95,51.37 -108.2,23.17 z"
       transform="translate(-89.81,-225.59)"
       id="path12"
       style="fill:#ffffff" />
    <path
       class="cls-1"
       d="m 440.18,305.08 12.14,19.06 c -7.77,4.1 -11.09,3.36 -15,-2.67 -1.38,-2.1 -2.75,-4.21 -4.08,-6.34 -6,-9.68 -7.39,-9.26 -19.6,-9.26 0,4.53 -0.13,11.11 0,15.84 0.15,4.16 -2.21,4.91 -5.64,4.88 -3.43,-0.03 -5.77,-0.77 -5.69,-4.91 q 0.21,-10.62 0,-21.24 c -0.09,-4 2,-5.14 5.52,-5.11 7.08,0.06 14.17,0.11 21.24,-0.06 5.05,-0.12 10.13,-1 10.05,-7.58 -0.08,-6.19 -4.73,-7.83 -10,-7.94 -7.08,-0.16 -14.16,-0.19 -21.24,0 -4.1,0.1 -5.65,-1.49 -5.67,-5.63 0,-4.35 2,-5.57 5.87,-5.51 6.62,0.11 13.24,0 19.87,0 11.65,0.08 18.65,4.08 21.58,12.26 3.24,8.92 0.7,15.84 -9.35,24.21 z"
       transform="translate(-89.81,-225.59)"
       id="path14"
       style="fill:#ffffff" />
    <path
       class="cls-1"
       d="m 561.35,315.34 c 0,0 -7.97,-19.34 -12.55,-30.34 -3.53,8.22 -6.62,14.43 -8.84,20.93 -1.71,5 -3,6.71 -9.35,5.32 -1.49,-0.33 -4.5,-1.56 -3.36,-4.46 4.68,-11.86 9.57,-23.67 14.93,-35.24 2.21,-4.77 11.35,-4.25 13.51,0.67 7,16.08 13.77,32.29 20.62,48.45 2,4.76 -0.29,6.17 -4.7,6.16 -14.83,0 -29.66,0.14 -44.48,-0.16 -2.31,-0.05 -6.83,-0.26 -6.51,-3.33 0.38,-3.74 1.42,-7.79 6.73,-7.76 8.89,0.01 34,-0.24 34,-0.24 z"
       transform="translate(-89.81,-225.59)"
       id="path16"
       style="fill:#ffffff" />
    <path
       class="cls-1"
       d="m 279.52,308 c 0,5.15 0,9.44 0,13.73 0,4 -2.36,4.87 -5.82,4.9 -3.62,0 -5.7,-1.22 -5.62,-5.09 0,-0.68 0,-1.37 0,-2 0.31,-7 -2,-16.45 1.68,-20.35 3.47,-3.71 13.12,-1.66 20.05,-2.13 0.91,-0.06 1.83,0 2.74,0 7.87,-0.2 11.43,-3 11.3,-8.79 -0.13,-5.79 -3.52,-8.37 -11.6,-8.47 -5.93,-0.07 -11.88,-0.18 -17.8,0 -4.17,0.15 -6.48,-1 -6.41,-5.67 0.05,-4.23 2,-5.56 6,-5.48 7.31,0.14 14.63,-0.22 21.92,0.15 11.93,0.61 19.53,8.41 19.56,19.53 0.03,11.12 -7.55,18.86 -19.5,19.65 -5.22,0.28 -10.44,0.02 -16.5,0.02 z"
       transform="translate(-89.81,-225.59)"
       id="path18"
       style="fill:#ffffff" />
    <path
       class="cls-1"
       d="m 727.35,273.72 c -0.07,4.53 -4.48,5.91 -6.89,6.71 -2.41,0.8 -3.91,3.25 -3.84,4.79 0.07,1.54 2.46,3.72 4.27,4.35 6,2.08 12.33,3.29 18.34,5.38 9.28,3.23 13.36,8.76 12.79,16.36 -0.59,7.91 -6.52,14 -15.78,15.47 -1.86,0.29 -4,0.69 -5.76,-2.2 -1.76,-2.89 -2.33,-6.4 2.42,-8.3 1.12,-0.45 3.15,-0.71 4.48,-1.51 4.14,-2.49 4.28,-6.25 0,-8.31 -4.08,-1.93 -8.62,-2.88 -13,-4.27 -3.46,-1.1 -7.08,-1.87 -10.35,-3.4 -7.68,-3.61 -10.46,-9 -9,-16.45 1.42,-7.16 8.13,-13.25 15.41,-13.21 1.82,0.01 6.97,-0.02 6.91,4.59 z"
       transform="translate(-89.81,-225.59)"
       id="path20"
       style="fill:#ffffff" />
    <path
       class="cls-1"
       d="m 481,297.79 c 0,-7.53 0.16,-15.06 -0.07,-22.58 -0.13,-4.59 1.45,-6.79 6.27,-6.63 6.15,0.19 12.31,0.15 18.46,0 4.13,-0.09 5.6,1.76 5.61,5.79 0,4.2 -1.79,5.43 -5.78,5.57 -12.8,0.47 -12.79,0.6 -12.79,13.26 0,9.35 -0.1,18.7 0,28 0.05,4.21 -1.34,6.3 -5.94,6.22 -4.6,-0.08 -5.9,-2.27 -5.82,-6.43 0.15,-7.7 0.06,-15.45 0.06,-23.2 z"
       transform="translate(-89.81,-225.59)"
       id="path22"
       style="fill:#ffffff" />
    <path
       class="cls-1"
       d="m 386,298.13 c -0.09,12.56 -7.65,23.9 -18.92,27.47 -2.29,0.72 -6.79,0.68 -7.41,-1.61 -1,-3.57 -1.67,-6.28 3.38,-8.55 10.15,-4.55 14.11,-13.19 10.4,-23.16 a 22.78,22.78 0 0 0 -9.88,-11.13 c -4.94,-2.64 -4.16,-5.74 -4,-9.87 0.11,-3.33 5.58,-1.71 8,-0.91 11.16,3.63 18.43,15.05 18.43,27.76 z"
       transform="translate(-89.81,-225.59)"
       id="path24"
       style="fill:#ffffff" />
    <path
       class="cls-1"
       d="m 354.14,276.29 c -0.47,2.94 -2,3.28 -4,4.09 -8.09,3.22 -11.65,9.36 -11.66,17.52 -0.01,8.16 3.66,14.58 11.86,17.3 4,1.35 4.4,5.25 3.31,8.91 -0.7,2.34 -5,2.27 -7.17,1.64 -11.84,-3.38 -19.88,-15.72 -19.46,-29 0.41,-12.86 8.7,-23.95 20.23,-27.07 5.58,-1.5 6.89,-0.62 6.89,6.61 z"
       transform="translate(-89.81,-225.59)"
       id="path26"
       style="fill:#ffffff" />
    <path
       class="cls-1"
       d="m 602.75,297.19 c 0,8 -0.15,15.95 0,23.92 0.11,4.3 -1.9,5.46 -5.8,5.52 -4.15,0.06 -5.61,-1.6 -5.57,-5.69 q 0.21,-23.24 0,-46.49 c 0,-3.91 1.09,-5.89 5.39,-5.9 4.3,-0.01 6.13,1.61 6,6.08 -0.2,7.51 -0.02,15.04 -0.02,22.56 z"
       transform="translate(-89.81,-225.59)"
       id="path28"
       style="fill:#ffffff" />
    <path
       class="cls-1"
       d="m 667.92,279.8 c -5.47,0 -10.94,-0.1 -16.41,0 -3.7,0.09 -5.41,-1.29 -5.41,-5.17 0,-3.88 0.85,-6.12 5.27,-6.08 q 16.74,0.18 33.51,0 c 4.3,-0.05 5.5,2.1 5.45,5.95 -0.06,3.65 -1.44,5.43 -5.31,5.32 -5.7,-0.14 -11.4,-0.02 -17.1,-0.02 z"
       transform="translate(-89.81,-225.59)"
       id="path30"
       style="fill:#ffffff" />
    <path
       class="cls-1"
       d="m 667.92,326.75 c -5.47,0 -10.93,-0.1 -16.39,0 -4.24,0.11 -5.47,-2 -5.43,-5.91 0,-3.76 1.51,-5.38 5.27,-5.35 q 16.74,0.11 33.46,0 c 3.66,0 5.47,1.39 5.49,5.2 0.02,3.81 -1,6.17 -5.33,6.07 -5.69,-0.11 -11.38,-0.01 -17.07,-0.01 z"
       transform="translate(-89.81,-225.59)"
       id="path32"
       style="fill:#ffffff" />
    <path
       class="cls-1"
       d="m 669,292.07 c 5,0 9.92,0.16 14.87,0 4.25,-0.17 6.36,1 6.44,5.34 0.07,4.49 -1.83,6 -6.59,5.95 -10.41,-0.2 -20.82,-0.16 -31.23,0 -4.21,0.06 -6.4,-1 -6.44,-5.37 -0.04,-4.37 1.78,-6.15 6.59,-5.92 5.46,0.21 10.92,0 16.36,0 z"
       transform="translate(-89.81,-225.59)"
       id="path34"
       style="fill:#ffffff" />
    <path
       class="cls-1"
       d="m 706.8,306.88 c 4.93,-0.88 15.12,6.14 18.63,12.57 0.76,1.39 1.47,5.57 -3.16,6.11 -7.49,1.25 -16.17,-4.44 -19.16,-11.63 -1.78,-4.29 -0.76,-6.57 3.69,-7.05 z"
       transform="translate(-89.81,-225.59)"
       id="path36"
       style="fill:#ffffff" />
    <path
       class="cls-1"
       d="m 745.15,288.62 a 18.24,18.24 0 0 1 -4.25,-2.42 42.72,42.72 0 0 1 -7.25,-6.3 c -1,-1.25 -2.79,-3.15 -2.79,-5.16 0,-4.94 4.37,-4.58 6.54,-4.3 a 16.84,16.84 0 0 1 13.88,10.78 c 1.96,4.69 0.42,8.78 -6.13,7.4 z"
       transform="translate(-89.81,-225.59)"
       id="path38"
       style="fill:#ffffff" />
    <path
       class="cls-1"
       d="m 619.56,326.55 c -2.28,0 -4.57,-0.06 -6.84,0 -4,0.14 -5,-2.05 -5,-5.6 0,-3.55 1.31,-5.58 5.15,-5.51 4.1,0.07 8.21,0.09 12.31,0 4.1,-0.09 6.45,0.85 6.45,5.67 0,4.82 -2.7,5.66 -6.58,5.5 -1.82,-0.08 -3.65,0 -5.47,0 z"
       transform="translate(-89.81,-225.59)"
       id="path40"
       style="fill:#ffffff" />
    <path
       class="cls-1"
       d="m 469.54,268.67 c 4.33,-0.45 6.84,0.77 6.81,5.88 0,5.62 -3.54,5.26 -7.32,5.37 -4,0.12 -6.44,-0.71 -6.46,-5.54 -0.02,-5.23 2.77,-6.12 6.97,-5.71 z"
       transform="translate(-89.81,-225.59)"
       id="path42"
       style="fill:#ffffff" />
  </g>
</svg>
